<svg width="119" height="36" viewBox="0 0 119 36" fill="none" xmlns="http://www.w3.org/2000/svg">
<g clip-path="url(#clip0_113_110)">
<path d="M5.37242 35.661V24.0285L0 0.328996H6.66764L8.54942 12.3056L10.4336 0.328996H17.1012L11.7312 24.0285V35.661H5.37242ZM20.6302 33.4008C19.2208 31.6579 18.5154 29.2094 18.5138 26.0551V9.22917C18.5138 6.18208 19.2192 3.88505 20.6302 2.33806C22.0411 0.791081 24.1072 0.0117302 26.8286 1.06188e-05C29.5419 1.06188e-05 31.6072 0.775176 33.0246 2.32551C34.4419 3.87584 35.1482 6.17287 35.1434 9.21661V26.0426C35.1434 29.2236 34.4371 31.6788 33.0246 33.4083C31.612 35.1378 29.5467 36.0017 26.8286 36C24.1057 36 22.0395 35.1336 20.6302 33.4008ZM28.052 28.6895C28.2894 27.9475 28.3957 27.1662 28.3656 26.3841V9.09356C28.3872 8.45474 28.2871 7.81782 28.0711 7.2201C27.8748 6.7396 27.4758 6.49935 26.8741 6.49935C25.7512 6.49935 25.1982 7.39338 25.1982 9.17392V26.4142C25.1982 27.4288 25.3155 28.1965 25.5501 28.7171C25.7847 29.2378 26.2165 29.499 26.8453 29.5007C27.1032 29.5176 27.3594 29.4465 27.5756 29.298C27.7918 29.1495 27.9564 28.9317 28.0448 28.677L28.052 28.6895ZM36.9485 35.661L40.2022 0.328996H51.6173L54.8255 35.661H48.4332L47.9543 29.9427H43.8843L43.4989 35.661H36.9485ZM44.4015 24.3047H47.4587L45.9672 6.33611H45.656L44.4015 24.3047ZM58.2443 33.6142C56.8844 32.0237 56.2045 29.4588 56.2045 25.9195V22.4639H62.8338V26.8713C62.8338 28.6276 63.3701 29.5057 64.4427 29.5057C65.0428 29.5057 65.461 29.3199 65.6972 28.9482C65.9366 28.579 66.0515 27.9436 66.0515 27.0772C66.0774 26.1072 65.9446 25.1398 65.6589 24.2168C65.4318 23.5306 65.0933 22.8908 64.6581 22.3258C64.2527 21.8235 63.5273 21.035 62.4819 19.9601L59.5778 16.9088C57.3305 14.6051 56.2061 12.0544 56.2045 9.25679C56.2045 6.24319 56.8653 3.94616 58.1868 2.36569C59.5084 0.785222 61.4365 -0.00333783 63.971 1.06188e-05C67.0036 1.06188e-05 69.187 0.843819 70.5214 2.53144C71.8557 4.21905 72.5229 6.85847 72.5229 10.4497H65.6589L65.6182 8.03629C65.638 7.6288 65.5048 7.22941 65.2471 6.92376C65.1109 6.78279 64.9481 6.67331 64.7692 6.60237C64.5902 6.53143 64.3991 6.50061 64.2081 6.5119C63.9921 6.49485 63.7753 6.52661 63.572 6.60503C63.3688 6.68344 63.184 6.8067 63.0301 6.96646C62.7539 7.30975 62.6134 7.75097 62.6375 8.19952C62.6375 9.35139 63.2656 10.5451 64.5217 11.7807L68.4433 15.7285C69.2641 16.5519 70.0244 17.4393 70.7177 18.383C71.3496 19.2828 71.8394 20.2834 72.1685 21.3464C72.5596 22.6565 72.7455 24.0245 72.7192 25.3972C72.7192 28.8829 72.1111 31.5231 70.8948 33.3179C69.6786 35.1127 67.6739 36.0067 64.8808 36C61.8163 36 59.6041 35.2048 58.2443 33.6142ZM76.7988 33.4008C75.3862 31.6579 74.68 29.2094 74.68 26.0551V9.22917C74.68 6.18208 75.3862 3.88505 76.7988 2.33806C78.2113 0.791081 80.2766 0.0117302 82.9948 1.06188e-05C85.7081 1.06188e-05 87.7742 0.775176 89.1931 2.32551C90.6121 3.87584 91.3175 6.17287 91.3096 9.21661V26.0426C91.3096 29.2236 90.6041 31.6788 89.1931 33.4083C87.7822 35.1378 85.7161 36.0017 82.9948 36C80.275 36 78.2097 35.1336 76.7988 33.4008ZM84.2205 28.6895C84.458 27.9475 84.5643 27.1662 84.5342 26.3841V9.09356C84.5558 8.45474 84.4557 7.81782 84.2397 7.2201C84.0434 6.74044 83.646 6.49935 83.0426 6.49935C81.9198 6.49935 81.3667 7.39338 81.3667 9.17392V26.4142C81.3667 27.4288 81.4841 28.1965 81.7187 28.7171C81.9533 29.2378 82.385 29.499 83.0139 29.5007C83.2714 29.517 83.5271 29.4456 83.7428 29.2972C83.9585 29.1488 84.1227 28.9312 84.211 28.677L84.2205 28.6895ZM94.0173 0.328996H103.156C105.612 0.328996 107.396 0.960178 108.509 2.22254C109.621 3.48491 110.18 5.54169 110.185 8.39289V9.95746C110.185 13.331 109.034 15.3468 106.733 16.0048C107.398 16.1664 108.016 16.4939 108.535 16.9595C109.054 17.4251 109.458 18.015 109.713 18.6793C110.288 20.079 110.575 21.9307 110.575 24.2344C110.575 27.9914 110.04 30.8375 108.969 32.7729C107.898 34.7083 105.96 35.671 103.156 35.661H94.0173V0.328996ZM101.99 13.619C102.563 13.619 102.955 13.3921 103.165 12.9384C103.401 12.3329 103.508 11.6807 103.479 11.0273V7.48881C103.479 6.33695 102.995 5.76102 102.028 5.76102H100.616V13.619H101.99ZM103.905 26.8261V22.4237C103.905 21.3539 103.755 20.5444 103.455 19.9953C103.153 19.4478 102.624 19.1715 101.865 19.1715H100.611V29.4178L101.279 29.458C103.03 29.458 103.905 28.5807 103.905 26.8261ZM112.49 35.661V0.328996H119V35.661H112.49Z" fill="#F2285A"/>
</g>
<defs>
<clipPath id="clip0_113_110">
<rect width="119" height="36" fill="white"/>
</clipPath>
</defs>
</svg>
